HIERARCHY
ROOT Hips
{
	OFFSET 0.000000 0.000000 0.000000
	CHANNELS 6 Xposition Yposition Zposition Xrotation Yrotation Zrotation
	JOINT LeftUpLeg_virtual
	{
		OFFSET 0.000000 0.000000 0.000000
		CHANNELS 3 Xrotation Yrotation Zrotation
		JOINT LeftUpLeg
		{
			OFFSET 13.026900 -6.336304 -1.092800
			CHANNELS 3 Xrotation Yrotation Zrotation
			JOINT LeftLeg
			{
				OFFSET 0.524474 -46.096886 9.782700
				CHANNELS 3 Xrotation Yrotation Zrotation
				JOINT LeftFoot
				{
					OFFSET -0.524474 -53.427422 -12.948200
					CHANNELS 3 Xrotation Yrotation Zrotation
					JOINT LeftToeBase
					{
						OFFSET 0.192200 -14.009700 16.364100
						CHANNELS 3 Xrotation Yrotation Zrotation
						JOINT LeftToe_End
						{
							OFFSET -1.784700 -0.561700 9.474800
							CHANNELS 3 Xrotation Yrotation Zrotation
							End Site
							{
								OFFSET 0 0 0
							}
						}
					}
				}
			}
		}
	}
	JOINT RightUpLeg_virtual
	{
		OFFSET 0.000000 0.000000 0.000000
		CHANNELS 3 Xrotation Yrotation Zrotation
		JOINT RightUpLeg
		{
			OFFSET -12.883000 -6.336304 -1.092800
			CHANNELS 3 Xrotation Yrotation Zrotation
			JOINT RightLeg
			{
				OFFSET -0.524587 -46.096825 9.782800
				CHANNELS 3 Xrotation Yrotation Zrotation
				JOINT RightFoot
				{
					OFFSET 0.524587 -53.427383 -12.948300
					CHANNELS 3 Xrotation Yrotation Zrotation
					JOINT RightToeBase
					{
						OFFSET -0.192200 -14.009700 16.364100
						CHANNELS 3 Xrotation Yrotation Zrotation
						JOINT RightToe_End
						{
							OFFSET 1.784700 -0.561700 9.474800
							CHANNELS 3 Xrotation Yrotation Zrotation
							End Site
							{
								OFFSET 0 0 0
							}
						}
					}
				}
			}
		}
	}
	JOINT Spine_virtual
	{
		OFFSET 0.000000 0.000000 0.000000
		CHANNELS 3 Xrotation Yrotation Zrotation
		JOINT Spine
		{
			OFFSET 0.072000 7.257294 -0.789700
			CHANNELS 3 Xrotation Yrotation Zrotation
			JOINT Spine1
			{
				OFFSET 0.000000 12.508769 -0.658067
				CHANNELS 3 Xrotation Yrotation Zrotation
				JOINT Spine1_split
				{
					OFFSET 0.000000 12.508769 -0.658067
					CHANNELS 3 Xrotation Yrotation Zrotation
					JOINT Spine2
					{
						OFFSET 0.000000 12.508769 -0.658067
						CHANNELS 3 Xrotation Yrotation Zrotation
						JOINT Neck_virtual
						{
							OFFSET 0.000000 0.000000 0.000000
							CHANNELS 3 Xrotation Yrotation Zrotation
							JOINT Neck
							{
								OFFSET 0.000000 14.033295 7.520400
								CHANNELS 3 Xrotation Yrotation Zrotation
								JOINT Head
								{
									OFFSET 0.000000 8.198502 5.703100
									CHANNELS 3 Xrotation Yrotation Zrotation
									JOINT HeadTop_End
									{
										OFFSET 0.000000 17.760803 13.332701
										CHANNELS 3 Xrotation Yrotation Zrotation
										End Site
										{
											OFFSET 0 0 0
										}
									}
								}
							}
						}
						JOINT LeftShoulder_virtual
						{
							OFFSET 0.000000 0.000000 0.000000
							CHANNELS 3 Xrotation Yrotation Zrotation
							JOINT LeftShoulder
							{
								OFFSET 6.292450 5.785301 -0.669000
								CHANNELS 3 Xrotation Yrotation Zrotation
								JOINT LeftShoulder_split
								{
									OFFSET 6.292450 5.785301 -0.669000
									CHANNELS 3 Xrotation Yrotation Zrotation
									JOINT LeftArm
									{
										OFFSET 13.907140 -6.093903 1.965100
										CHANNELS 3 Xrotation Yrotation Zrotation
										JOINT LeftForeArm
										{
											OFFSET 34.140198 0.000000 0.000000
											CHANNELS 3 Xrotation Yrotation Zrotation
											JOINT LeftHand
											{
												OFFSET 40.960209 0.000000 0.000000
												CHANNELS 3 Xrotation Yrotation Zrotation
												End Site
												{
													OFFSET 0 0 0
												}
											}
										}
									}
								}
							}
						}
						JOINT RightShoulder_virtual
						{
							OFFSET 0.000000 0.000000 0.000000
							CHANNELS 3 Xrotation Yrotation Zrotation
							JOINT RightShoulder
							{
								OFFSET -6.292450 5.785301 -0.669000
								CHANNELS 3 Xrotation Yrotation Zrotation
								JOINT RightShoulder_split
								{
									OFFSET -6.292450 5.785301 -0.669000
									CHANNELS 3 Xrotation Yrotation Zrotation
									JOINT RightArm
									{
										OFFSET -13.907140 -6.093903 1.965100
										CHANNELS 3 Xrotation Yrotation Zrotation
										JOINT RightForeArm
										{
											OFFSET -34.140198 0.000000 0.000000
											CHANNELS 3 Xrotation Yrotation Zrotation
											JOINT RightHand
											{
												OFFSET -40.960209 0.000000 0.000000
												CHANNELS 3 Xrotation Yrotation Zrotation
												End Site
												{
													OFFSET 0 0 0
												}
											}
										}
									}
								}
							}
						}
					}
				}
			}
		}
	}
}
MOTION
Frames: 5
Frame Time: 0.03333333
-0.061576 129.373550 -3.446754 0.000000 0.000000 0.000000 -83.568594 -8.928265 -3.802125 5.164280 23.253283 15.171476 -5.816244 6.360589 3.804410 23.286456 28.262348 -25.460000 -6.357775 -0.306510 1.585760 0.000000 0.000000 0.000000 -85.795345 -5.015808 -1.298079 4.140258 -20.489333 -10.047896 -3.090287 -3.702645 -8.107978 32.425831 -31.049350 31.869335 -13.612025 0.598030 -0.627328 0.000000 0.000000 0.000000 -84.488395 -9.054703 -5.021749 -1.225698 -2.242078 0.579579 -0.568877 -2.696520 0.729035 2.066943 3.421259 -0.494631 0.000000 0.000000 0.000000 -2.212287 -3.004788 0.493805 -13.622394 1.880086 0.144406 9.886031 -2.480947 3.816323 0.000000 0.000000 0.000000 -1.280943 -2.967373 1.150739 0.371745 3.322080 -2.700372 -2.598819 2.931373 -5.927237 41.874869 -33.025440 -47.365921 168.474921 -87.644318 168.824026 0.000000 0.000000 0.000000 -1.308971 -2.702871 0.803919 1.027157 -3.473440 13.247101 0.918219 3.153940 -0.217645 31.683345 34.427234 39.409922 173.162863 76.332070 -172.738954 0.000000 0.000000 0.000000 
-0.032233 129.538879 -3.431511 0.000000 0.000000 0.000000 -83.585970 -8.959511 -3.828408 5.061929 22.923290 15.216072 -5.536071 6.294109 3.790584 23.486391 28.185395 -25.469673 -6.179302 -0.285745 1.527152 0.000000 0.000000 0.000000 -85.800631 -4.916227 -1.223881 4.294219 -20.405941 -9.900384 -3.050343 -3.740933 -8.135389 32.191119 -31.137832 31.823446 -13.783090 0.630354 -0.688218 0.000000 0.000000 0.000000 -84.384952 -8.863036 -4.816471 -1.192241 -2.235052 0.727617 -0.443776 -2.661210 0.765520 1.906982 3.288877 -0.719521 0.000000 0.000000 0.000000 -2.192894 -2.989275 0.523994 -13.854333 2.145013 0.053769 10.062492 -2.147547 3.282067 0.000000 0.000000 0.000000 -1.056540 -2.938093 1.264257 0.206216 3.271892 -3.326068 -2.439617 3.675325 -5.177550 41.900840 -32.921765 -46.957995 165.924092 -88.229214 166.034768 0.000000 0.000000 0.000000 -1.039431 -2.628700 0.767134 1.094950 -3.292305 13.023733 1.122457 2.858906 -0.007434 29.624644 34.672441 39.590491 173.555407 75.197664 -173.192082 0.000000 0.000000 0.000000 
-0.057801 129.774963 -3.395981 0.000000 0.000000 0.000000 -83.715757 -8.948230 -3.734913 4.854037 22.579565 15.273982 -5.155971 6.301354 3.711418 23.640787 28.049131 -25.520262 -5.900441 -0.252793 1.429635 0.000000 0.000000 0.000000 -85.860689 -4.724622 -1.034039 4.393072 -19.954111 -9.752779 -2.911884 -3.792093 -8.230303 31.917628 -31.263053 31.622922 -13.858608 0.679432 -0.771319 0.000000 0.000000 0.000000 -84.394869 -8.747014 -4.647925 -1.015491 -2.245852 0.945466 -0.050710 -2.632047 0.782611 1.710788 2.781044 -0.886378 0.000000 0.000000 0.000000 -1.895927 -2.982551 0.527499 -13.913203 2.407964 -0.368620 10.080320 -1.393157 2.173569 0.000000 0.000000 0.000000 -0.484553 -2.963563 1.312960 0.055410 3.307723 -4.290158 -2.383273 4.219922 -4.319715 40.463291 -32.405628 -47.283405 162.932250 -89.488715 162.899342 0.000000 0.000000 0.000000 -0.573968 -2.599500 0.691373 1.063157 -2.741946 12.694733 1.243041 2.610018 0.766306 25.778351 35.353237 39.828339 174.966839 74.078360 -174.863798 0.000000 0.000000 0.000000 
-0.123106 129.984985 -3.297504 0.000000 0.000000 0.000000 -83.929795 -8.897829 -3.532649 4.629295 22.330793 15.306439 -4.731966 6.342960 3.603672 23.582191 27.901348 -25.528617 -5.726513 -0.222586 1.347889 0.000000 0.000000 0.000000 -85.983974 -4.526525 -0.741379 4.310494 -19.298131 -9.691817 -2.662715 -3.804908 -8.351632 31.692040 -31.327673 31.347211 -13.786391 0.733420 -0.849778 0.000000 0.000000 0.000000 -84.573547 -8.756559 -4.537765 -0.702548 -2.224478 1.138106 0.614165 -2.499012 0.764542 1.463139 2.039062 -0.825496 0.000000 0.000000 0.000000 -1.310495 -2.867737 0.472070 -13.721864 2.528387 -1.001916 9.923319 -0.354132 0.660701 0.000000 0.000000 0.000000 0.407076 -2.909814 1.295749 -0.051646 3.409798 -5.373326 -2.267335 4.204305 -3.377732 38.007735 -31.714050 -47.946340 -22.271428 -89.211177 -22.367300 0.000000 0.000000 0.000000 0.064572 -2.501418 0.572605 0.921857 -1.859894 12.314043 1.199664 2.571032 1.677191 20.555186 36.313432 40.292809 176.676613 73.106096 -176.943099 0.000000 0.000000 0.000000 
-0.207085 130.134293 -3.155777 0.000000 0.000000 0.000000 -84.179056 -8.851942 -3.246265 4.449793 22.168644 15.302708 -4.376591 6.373934 3.518603 23.163275 27.808072 -25.406444 -5.675143 -0.208483 1.305916 0.000000 0.000000 0.000000 -86.175001 -4.401336 -0.408293 4.036822 -18.673761 -9.718381 -2.393333 -3.766858 -8.480890 31.565347 -31.291576 31.050877 -13.579330 0.777407 -0.899334 0.000000 0.000000 0.000000 -84.944119 -8.908386 -4.491648 -0.258068 -2.093836 1.204468 1.579187 -2.138288 0.715984 1.278795 1.388776 -0.564711 0.000000 0.000000 0.000000 -0.445678 -2.525323 0.359431 -13.210939 2.440914 -1.638872 9.645930 0.668222 -1.038536 0.000000 0.000000 0.000000 1.547259 -2.631470 1.209062 -0.098864 3.491678 -6.363554 -1.864171 3.612682 -2.595919 35.232059 -31.104080 -48.457897 -26.636177 -88.314141 -26.751218 0.000000 0.000000 0.000000 0.883383 -2.217694 0.406032 0.692853 -0.811642 11.981987 0.872003 2.546127 2.295775 14.304188 37.133143 41.242461 178.291392 71.934152 -178.960163 0.000000 0.000000 0.000000 
